<svg width="260" height="20" viewBox="0 0 260 20" fill="none" xmlns="http://www.w3.org/2000/svg">
<rect y="15" width="2" height="5" fill="#D9D9D9"/>
<rect x="3" y="14" width="2" height="6" fill="#D9D9D9"/>
<rect x="6" y="16" width="2" height="4" fill="#D9D9D9"/>
<rect x="9" y="15" width="2" height="5" fill="#D9D9D9"/>
<rect x="12" y="12" width="2" height="8" fill="#D9D9D9"/>
<rect x="15" y="13" width="2" height="7" fill="#D9D9D9"/>
<rect x="18" y="15" width="2" height="5" fill="#D9D9D9"/>
<rect x="69" y="15" width="2" height="5" fill="#FF8126"/>
<rect x="117" y="15" width="2" height="5" fill="#FF8126"/>
<rect x="165" y="15" width="2" height="5" fill="#FF8126"/>
<rect x="213" y="14" width="2" height="6" fill="#D9D9D9"/>
<rect x="120" y="15" width="2" height="5" fill="#FF8126"/>
<rect x="171" y="15" width="2" height="5" fill="#FF8126"/>
<rect x="222" y="15" width="2" height="5" fill="#D9D9D9"/>
<rect x="21" y="14" width="2" height="6" fill="#FF8126"/>
<rect x="72" y="14" width="2" height="6" fill="#FF8126"/>
<rect x="168" y="14" width="2" height="6" fill="#FF8126"/>
<rect x="216" y="14" width="2" height="6" fill="#D9D9D9"/>
<rect x="219" y="11" width="2" height="9" fill="#D9D9D9"/>
<rect x="123" y="14" width="2" height="6" fill="#FF8126"/>
<rect x="174" y="14" width="2" height="6" fill="#FF8126"/>
<rect x="225" y="14" width="2" height="6" fill="#D9D9D9"/>
<rect x="24" y="11" width="2" height="9" fill="#FF8126"/>
<rect x="75" y="11" width="2" height="9" fill="#FF8126"/>
<rect x="126" y="11" width="2" height="9" fill="#FF8126"/>
<rect x="177" y="11" width="2" height="9" fill="#FF8126"/>
<rect x="228" y="11" width="2" height="9" fill="#D9D9D9"/>
<rect x="27" y="9" width="2" height="11" fill="#FF8126"/>
<rect x="78" y="9" width="2" height="11" fill="#FF8126"/>
<rect x="129" y="9" width="2" height="11" fill="#FF8126"/>
<rect x="180" y="9" width="2" height="11" fill="#FF8126"/>
<rect x="231" y="9" width="2" height="11" fill="#D9D9D9"/>
<rect x="30" y="7" width="2" height="13" fill="#FF8126"/>
<rect x="81" y="7" width="2" height="13" fill="#FF8126"/>
<rect x="132" y="7" width="2" height="13" fill="#FF8126"/>
<rect x="183" y="7" width="2" height="13" fill="#FF8126"/>
<rect x="234" y="7" width="2" height="13" fill="#D9D9D9"/>
<rect x="33" y="8" width="2" height="12" fill="#FF8126"/>
<rect x="84" y="8" width="2" height="12" fill="#FF8126"/>
<rect x="135" y="8" width="2" height="12" fill="#FF8126"/>
<rect x="186" y="8" width="2" height="12" fill="#FF8126"/>
<rect x="36" y="11" width="2" height="9" fill="#FF8126"/>
<rect x="87" y="11" width="2" height="9" fill="#FF8126"/>
<rect x="138" y="11" width="2" height="9" fill="#FF8126"/>
<rect x="39" y="5" width="2" height="15" fill="#FF8126"/>
<rect x="90" y="5" width="2" height="15" fill="#FF8126"/>
<rect x="141" y="5" width="2" height="15" fill="#FF8126"/>
<rect x="42" y="4" width="2" height="16" fill="#FF8126"/>
<rect x="93" y="4" width="2" height="16" fill="#FF8126"/>
<rect x="144" y="4" width="2" height="16" fill="#FF8126"/>
<rect x="45" y="10" width="2" height="10" fill="#FF8126"/>
<rect x="189" y="10" width="2" height="10" fill="#D9D9D9"/>
<rect x="237" y="10" width="2" height="10" fill="#D9D9D9"/>
<rect x="48" y="13" width="2" height="7" fill="#FF8126"/>
<rect x="96" y="13" width="2" height="7" fill="#FF8126"/>
<rect x="192" y="13" width="2" height="7" fill="#D9D9D9"/>
<rect x="240" y="13" width="2" height="7" fill="#D9D9D9"/>
<rect x="51" y="9" width="2" height="11" fill="#FF8126"/>
<rect x="99" y="9" width="2" height="11" fill="#FF8126"/>
<rect x="147" y="9" width="2" height="11" fill="#FF8126"/>
<rect x="195" y="9" width="2" height="11" fill="#D9D9D9"/>
<rect x="243" y="9" width="2" height="11" fill="#D9D9D9"/>
<rect x="54" y="6" width="2" height="14" fill="#FF8126"/>
<rect x="102" y="6" width="2" height="14" fill="#FF8126"/>
<rect x="150" y="6" width="2" height="14" fill="#FF8126"/>
<rect x="198" y="6" width="2" height="14" fill="#D9D9D9"/>
<rect x="246" y="6" width="2" height="14" fill="#D9D9D9"/>
<rect x="57" y="8" width="2" height="12" fill="#FF8126"/>
<rect x="105" y="8" width="2" height="12" fill="#FF8126"/>
<rect x="153" y="8" width="2" height="12" fill="#FF8126"/>
<rect x="201" y="11" width="2" height="9" fill="#D9D9D9"/>
<rect x="249" y="4" width="2" height="16" fill="#D9D9D9"/>
<rect x="60" y="10" width="2" height="10" fill="#FF8126"/>
<rect x="108" y="10" width="2" height="10" fill="#FF8126"/>
<rect x="156" y="10" width="2" height="10" fill="#FF8126"/>
<rect x="204" y="10" width="2" height="10" fill="#D9D9D9"/>
<rect x="252" y="3" width="2" height="17" fill="#D9D9D9"/>
<rect x="63" y="13" width="2" height="7" fill="#FF8126"/>
<rect x="111" y="13" width="2" height="7" fill="#FF8126"/>
<rect x="159" y="13" width="2" height="7" fill="#FF8126"/>
<rect x="207" y="13" width="2" height="7" fill="#D9D9D9"/>
<rect x="255" y="1" width="2" height="19" fill="#D9D9D9"/>
<rect x="66" y="15" width="2" height="5" fill="#FF8126"/>
<rect x="114" y="15" width="2" height="5" fill="#FF8126"/>
<rect x="162" y="15" width="2" height="5" fill="#FF8126"/>
<rect x="210" y="12" width="2" height="8" fill="#D9D9D9"/>
<rect x="258" width="2" height="20" fill="#D9D9D9"/>
</svg>
