<svg width="19" height="18" viewBox="0 0 19 18" fill="none" xmlns="http://www.w3.org/2000/svg">
<path fill-rule="evenodd" clip-rule="evenodd" d="M9.42678 1.49951C12.3263 1.49951 14.6768 3.85002 14.6768 6.7495C14.6768 7.70589 14.4218 8.60202 13.9743 9.37483C13.6759 9.89001 12.1601 12.5149 9.42678 17.2495C6.69345 12.5149 5.17763 9.89001 4.87932 9.37483C4.43178 8.60202 4.17676 7.70589 4.17676 6.7495C4.17676 3.85002 6.52727 1.49951 9.42675 1.49951M9.42678 4.4995C8.18415 4.4995 7.17678 5.50687 7.17678 6.7495C7.17678 7.99213 8.18415 8.9995 9.42678 8.9995C10.6694 8.9995 11.6768 7.99217 11.6768 6.7495C11.6768 5.50687 10.6694 4.4995 9.42678 4.4995Z" fill="#FF8126"/>
</svg>
